<?xml version="1.0" encoding="utf-8"?>
<!-- Generator: Adobe Illustrator 21.0.0, SVG Export Plug-In . SVG Version: 6.00 Build 0)  -->
<svg version="1.1" xmlns="http://www.w3.org/2000/svg" xmlns:xlink="http://www.w3.org/1999/xlink" x="0px" y="0px" width="792px"
	 height="243px" viewBox="0 0 792 243" style="enable-background:new 0 0 792 243;" xml:space="preserve">
<style type="text/css">
	.st0{fill:url(#SVGID_1_);}
	.st1{fill:none;}
	.st2{fill:url(#SVGID_2_);}
	.st3{fill:url(#SVGID_3_);}
	.st4{fill:url(#SVGID_4_);}
	.st5{fill:#446CA9;}
	.st6{fill:#F7B334;}
	.st7{fill:#4678BB;}
	.st8{fill:#00A6D7;}
	.st9{fill:#EFA92B;}
	.st10{display:none;}
	.st11{display:inline;}
</style>
<g id="Layer_1">
	<linearGradient id="SVGID_1_" gradientUnits="userSpaceOnUse" x1="82.386" y1="111.4026" x2="82.386" y2="65.3099">
		<stop  offset="0" style="stop-color:#264774"/>
		<stop  offset="1" style="stop-color:#4678BB"/>
	</linearGradient>
	<path class="st0" d="M56,110.7L68.4,123l13.1-13.1L69.1,97.5c-6.8-6.8-6.8-17.9,0-24.7s17.9-6.8,24.7,0l12.3,12.3l13.1-13.1
		l-12.3-12.3c-14-14-36.9-14-50.9,0C42,73.8,42,96.6,56,110.7z"/>
	<path class="st1" d="M69.1,148.4c-6.8,6.8-6.8,17.9,0,24.7s17.9,6.8,24.7,0l12.3-12.3L81.4,136L69.1,148.4z"/>
	
		<rect x="101.8" y="105.5" transform="matrix(0.7071 -0.7071 0.7071 0.7071 -52.0002 120.2831)" class="st1" width="34.9" height="34.9"/>
	<path class="st1" d="M169.3,97.5c6.8-6.8,6.8-17.9,0-24.7c-6.8-6.8-17.9-6.8-24.7,0l-12.3,12.3l24.7,24.7L169.3,97.5z"/>
	<path class="st1" d="M93.7,72.8c-6.8-6.8-17.9-6.8-24.7,0s-6.8,17.9,0,24.7l12.3,12.3l24.7-24.7L93.7,72.8z"/>
	<path class="st1" d="M144.7,173c6.8,6.8,17.9,6.8,24.7,0c6.8-6.8,6.8-17.9,0-24.7L157,136l-24.7,24.7L144.7,173z"/>
	<linearGradient id="SVGID_2_" gradientUnits="userSpaceOnUse" x1="156.0818" y1="115.4346" x2="156.0818" y2="189.6123">
		<stop  offset="0" style="stop-color:#976C14"/>
		<stop  offset="1" style="stop-color:#EFA92B"/>
	</linearGradient>
	<path class="st2" d="M169.3,148.4c6.8,6.8,6.8,17.9,0,24.7c-6.8,6.8-17.9,6.8-24.7,0l-12.3-12.3l-13.1,13.1l12.3,12.3
		c14,14,36.9,14,50.9,0c14-14,14-36.9,0-50.9l-12.6-12.6l-13.1,13.1L169.3,148.4z"/>
	<linearGradient id="SVGID_3_" gradientUnits="userSpaceOnUse" x1="120.4267" y1="164.3881" x2="96.9221" y2="137.8178">
		<stop  offset="0" style="stop-color:#976C14"/>
		<stop  offset="1" style="stop-color:#EFA92B"/>
	</linearGradient>
	<polygon class="st3" points="83.3,137.9 106.9,161.5 120,148.4 96.4,124.8 	"/>
	<linearGradient id="SVGID_4_" gradientUnits="userSpaceOnUse" x1="125.566" y1="90.6516" x2="139.3099" y2="105.1384">
		<stop  offset="0" style="stop-color:#264774"/>
		<stop  offset="1" style="stop-color:#4678BB"/>
	</linearGradient>
	<polygon class="st4" points="155.3,107.7 132.1,84.9 119,98 142.2,120.8 	"/>
	<path class="st5" d="M216.9,90.5c1-0.2,2-0.4,2.9-0.4c1-0.1,2-0.1,3.2-0.1c2,0,4,0.2,6.1,0.6c0.2,0.4,0.4,0.9,0.6,1.5
		c0.2,0.7,0.4,1.4,0.5,2.2c0.2,0.8,0.3,1.5,0.4,2.3c0.1,0.7,0.2,1.4,0.3,1.9c0.6-1.1,1.4-2.2,2.3-3.3c0.9-1.1,2-2.1,3.3-2.9
		c1.3-0.8,2.8-1.5,4.4-2.1c1.6-0.5,3.4-0.8,5.4-0.8c3,0,5.9,0.6,8.6,1.7c2.7,1.1,5,2.9,7,5.2c2,2.3,3.5,5.2,4.6,8.7
		c1.1,3.5,1.6,7.6,1.6,12.3c0,4.6-0.7,8.7-2,12.4c-1.3,3.6-3.3,6.7-5.8,9.3c-2.5,2.5-5.7,4.5-9.3,5.9c-3.7,1.4-7.9,2.1-12.5,2.1
		c-1.2,0-2.4-0.1-3.6-0.2c-1.2-0.1-2.1-0.2-2.9-0.4v24.4c-1.3,0.2-2.6,0.4-3.9,0.4c-1.2,0.1-2.5,0.1-3.7,0.1c-1.2,0-2.4,0-3.7-0.1
		c-1.2-0.1-2.5-0.2-3.9-0.4V90.5z M232,133.8c1.9,0.6,4.1,0.8,6.6,0.8c4.4,0,7.8-1.4,10.1-4.2c2.3-2.8,3.5-7.1,3.5-12.9
		c0-2.2-0.2-4.2-0.5-6.1c-0.4-1.9-1-3.5-1.8-4.8c-0.8-1.3-1.9-2.4-3.2-3.2c-1.3-0.8-2.9-1.2-4.8-1.2c-1.8,0-3.3,0.3-4.5,1
		c-1.2,0.7-2.2,1.6-3,2.8c-0.8,1.2-1.3,2.5-1.7,4.1c-0.4,1.6-0.5,3.2-0.5,5V133.8z"/>
	<path class="st5" d="M303.2,109.4c0-1.7-0.3-3.1-0.8-4.1c-0.6-1.1-1.3-1.9-2.3-2.5c-1-0.6-2.2-1-3.7-1.2c-1.5-0.2-3.1-0.3-4.8-0.3
		c-3.8,0-7.9,0.7-12.2,2.2c-1-1.8-1.7-3.6-2.2-5.2c-0.5-1.6-0.7-3.6-0.7-5.8c3.1-1.1,6.2-1.8,9.3-2.3c3.1-0.5,6-0.7,8.7-0.7
		c7.4,0,13.1,1.8,17.3,5.3c4.1,3.5,6.2,9.2,6.2,17v31.9c-2.5,0.8-5.5,1.5-9,2.2c-3.5,0.7-7.5,1.1-12,1.1c-3.6,0-6.9-0.3-9.9-1
		c-3-0.6-5.6-1.7-7.8-3.2c-2.2-1.5-3.8-3.4-5-5.7c-1.2-2.3-1.8-5.2-1.8-8.6c0-3.4,0.7-6.2,2.2-8.6c1.5-2.3,3.3-4.1,5.6-5.5
		c2.3-1.4,4.9-2.4,7.7-3c2.8-0.6,5.7-0.9,8.5-0.9c2.1,0,4.3,0.1,6.8,0.3V109.4z M303.2,120.3c-0.8-0.1-1.8-0.3-2.8-0.4
		c-1-0.1-1.9-0.2-2.7-0.2c-3.5,0-6.2,0.6-8.2,1.9c-2,1.2-3,3.2-3,6c0,1.8,0.4,3.3,1.2,4.2c0.8,1,1.7,1.7,2.8,2.2
		c1.1,0.5,2.3,0.7,3.5,0.9c1.2,0.1,2.3,0.2,3.2,0.2c1.1,0,2.1-0.1,3.2-0.3c1.1-0.2,2-0.3,2.8-0.5V120.3z"/>
	<path class="st5" d="M362.2,132.6c0.8,1.4,1.6,3.1,2.1,4.9c0.6,1.9,0.9,4.1,0.9,6.6c-2.8,1.1-5.5,1.9-8,2.2
		c-2.5,0.3-5.1,0.5-7.8,0.5c-4.6,0-8.6-0.7-12-2.2c-3.4-1.5-6.2-3.5-8.4-6c-2.2-2.5-3.9-5.6-5-9.1c-1.1-3.5-1.7-7.3-1.7-11.4
		c0-4,0.5-7.8,1.6-11.3c1.1-3.5,2.8-6.5,5-9.1c2.2-2.6,5-4.7,8.3-6.2c3.3-1.5,7.2-2.2,11.6-2.2c1.6,0,3,0,4.3,0.1
		c1.3,0.1,2.6,0.2,3.8,0.4c1.2,0.2,2.4,0.5,3.6,0.8c1.2,0.4,2.5,0.8,4,1.4c0,1.6-0.2,3.5-0.6,5.5c-0.4,2-1.1,3.9-2,5.8
		c-2.1-0.7-4-1.2-5.6-1.4c-1.6-0.2-3.4-0.4-5.5-0.4c-4.4,0-7.7,1.4-9.9,4.3c-2.2,2.9-3.3,7-3.3,12.3c0,5.7,1.2,9.9,3.6,12.5
		c2.4,2.6,5.7,3.9,9.8,3.9c1.1,0,2,0,2.9-0.1c0.9,0,1.8-0.1,2.6-0.3c0.8-0.1,1.7-0.4,2.6-0.6C360,133.3,361,133,362.2,132.6z"/>
	<path class="st5" d="M371.5,67.9c2.4-0.4,4.9-0.6,7.4-0.6s5.1,0.2,7.5,0.6v77.7c-2.5,0.4-5,0.6-7.5,0.6s-5-0.2-7.4-0.6V67.9z
		 M388.6,116.7l13.6-26.1c2.8-0.4,5.6-0.6,8.4-0.6c2.7,0,5.3,0.2,7.9,0.6l-14,25.4l16.4,29.5c-2.9,0.4-5.7,0.6-8.4,0.6
		c-2.5,0-5.1-0.2-7.9-0.6L388.6,116.7z"/>
	<path class="st5" d="M434.2,122.7c0.3,4.2,1.8,7.3,4.5,9.2c2.7,1.9,6.2,2.9,10.6,2.9c2.4,0,4.9-0.2,7.4-0.7c2.5-0.5,4.9-1.1,7.2-2
		c0.8,1.4,1.5,3.1,2,5.1c0.6,2,0.9,4.1,1,6.4c-5.5,2.1-11.8,3.2-18.7,3.2c-5.1,0-9.5-0.7-13.1-2.1c-3.6-1.4-6.6-3.4-8.9-5.9
		c-2.3-2.5-4-5.5-5.1-9c-1.1-3.5-1.6-7.3-1.6-11.4c0-4,0.6-7.8,1.7-11.4c1.1-3.5,2.8-6.6,5-9.2c2.2-2.6,5-4.7,8.3-6.2
		c3.3-1.5,7.1-2.3,11.5-2.3c3.8,0,7.2,0.7,10.2,2c3,1.3,5.5,3.2,7.6,5.5c2.1,2.3,3.7,5.1,4.7,8.3c1.1,3.2,1.6,6.7,1.6,10.4
		c0,1.3-0.1,2.7-0.2,4c-0.1,1.3-0.2,2.4-0.4,3.1H434.2z M455.7,112.2c-0.1-3.4-1.1-6.1-2.8-8.2c-1.7-2.1-4.2-3.1-7.3-3.1
		c-3.5,0-6.2,1-8.1,3c-1.8,2-2.9,4.8-3.3,8.4H455.7z"/>
	<path class="st5" d="M480,102.1h-6.9l-0.5-2.1l19.9-25.4h2.4v16h12.9c0.2,1.1,0.4,2,0.4,2.9c0.1,0.9,0.1,1.7,0.1,2.7
		c0,1,0,1.9-0.1,2.9c-0.1,0.9-0.2,1.9-0.4,3.1h-12.9v21.6c0,2.2,0.2,4,0.5,5.3c0.4,1.3,0.9,2.4,1.5,3.2c0.7,0.8,1.5,1.3,2.5,1.6
		c1,0.3,2.2,0.4,3.5,0.4c1.1,0,2.1-0.1,3.1-0.3c1-0.2,1.9-0.3,2.7-0.5c0.5,1.3,0.8,2.7,1.1,4.2c0.2,1.5,0.3,2.7,0.3,3.9
		c0,0.8,0,1.4-0.1,2c0,0.5-0.1,1-0.2,1.5c-3.3,0.8-6.6,1.2-10.1,1.2c-6.4,0-11.4-1.5-14.8-4.5c-3.4-3-5.1-7.9-5.1-14.7V102.1z"/>
	<path class="st6" d="M524.1,97.3h-9.2c-0.1-0.4-0.1-0.8-0.2-1.3c0-0.5-0.1-1-0.1-1.6c0-0.6,0-1.1,0.1-1.7c0-0.6,0.1-1,0.2-1.4h9.2
		v-4.8c0-6.7,1.5-11.6,4.4-15c2.9-3.3,7.6-5,14-5c1.5,0,2.9,0.1,4.1,0.3c1.2,0.2,2.3,0.4,3.1,0.6c-0.1,1.3-0.3,2.4-0.5,3.3
		c-0.2,0.8-0.4,1.8-0.7,2.8c-0.6-0.1-1.5-0.3-2.5-0.5c-1.1-0.2-2.2-0.3-3.4-0.3c-1.8,0-3.5,0.2-4.9,0.6c-1.4,0.4-2.6,1.1-3.6,2.1
		c-1,1-1.7,2.5-2.2,4.3c-0.5,1.8-0.8,4.2-0.8,7.1v4.5H546c0.1,0.4,0.1,0.8,0.2,1.4c0,0.6,0.1,1.1,0.1,1.7c0,0.6,0,1.1-0.1,1.6
		c0,0.5-0.1,0.9-0.2,1.3h-14.9v48.2c-0.4,0.1-1,0.1-1.8,0.2c-0.7,0-1.3,0.1-1.8,0.1c-0.4,0-0.9,0-1.7-0.1c-0.8,0-1.4-0.1-1.8-0.2
		V97.3z"/>
	<path class="st6" d="M580.4,109.7c0-4.7-1.1-8.1-3.3-10.3c-2.2-2.2-5.5-3.2-9.8-3.2c-2.8,0-5.4,0.2-7.8,0.6
		c-2.3,0.4-4.4,0.9-6.3,1.4c-0.4-0.6-0.7-1.6-0.9-2.8c-0.2-1.2-0.4-2.3-0.4-3.4c1.8-0.6,4.1-1,6.8-1.4c2.7-0.4,5.5-0.6,8.3-0.6
		c6.9,0,12,1.5,15.3,4.5c3.3,3,5,7.7,5,14.2v35.8c-2.5,0.5-5.5,1-9,1.5c-3.5,0.5-6.9,0.7-10.1,0.7c-6.6,0-11.8-1.3-15.6-3.9
		c-3.8-2.6-5.7-6.9-5.7-12.7c0-2.8,0.5-5.4,1.6-7.6c1.1-2.2,2.6-4.1,4.6-5.6c1.9-1.5,4.3-2.7,7-3.5c2.7-0.8,5.7-1.2,9-1.2
		c2.5,0,4.7,0.1,6.6,0.3c1.8,0.2,3.4,0.3,4.6,0.5V109.7z M580.4,119.2c-1.2-0.1-2.7-0.3-4.5-0.5c-1.8-0.2-3.5-0.3-5.2-0.3
		c-5.3,0-9.4,1-12.3,3c-2.9,2-4.4,4.8-4.4,8.5c0,2.3,0.4,4.2,1.3,5.6c0.9,1.4,2,2.5,3.5,3.2c1.4,0.7,3,1.2,4.7,1.5
		c1.7,0.2,3.4,0.4,5.1,0.4c2.2,0,4.2-0.1,6.2-0.3c1.9-0.2,3.8-0.5,5.6-0.9V119.2z"/>
	<path class="st6" d="M595.8,67.4c0.4-0.1,1-0.1,1.8-0.2c0.7,0,1.3-0.1,1.8-0.1c0.4,0,0.9,0,1.7,0.1c0.8,0,1.4,0.1,1.8,0.2v31.4
		c1.5-2.3,3.6-4.3,6.4-6.1c2.8-1.8,6.4-2.7,10.9-2.7c3.3,0,6.4,0.5,9.1,1.5c2.8,1,5.1,2.6,7.1,4.8c1.9,2.2,3.5,5,4.6,8.3
		c1.1,3.3,1.6,7.3,1.6,12c0,9.4-2.6,16.8-7.8,22.1c-5.2,5.3-12.6,8-22.4,8c-3.2,0-6.3-0.3-9.2-0.9c-3-0.6-5.4-1.3-7.3-2V67.4z
		 M602.8,139c1.6,0.6,3.3,1,5.2,1.2c1.8,0.2,3.7,0.4,5.8,0.4c2.8,0,5.5-0.5,8.1-1.4c2.6-0.9,4.9-2.3,6.8-4.2
		c1.9-1.9,3.5-4.3,4.7-7.3c1.2-2.9,1.8-6.5,1.8-10.6c0-6.4-1.2-11.5-3.7-15.2c-2.4-3.7-6.4-5.5-11.8-5.5c-1.7,0-3.5,0.3-5.5,0.9
		c-2,0.6-3.8,1.5-5.5,2.9c-1.7,1.3-3,3.1-4.1,5.4c-1.1,2.2-1.6,5-1.6,8.4V139z"/>
	<path class="st6" d="M648.4,91.3c0.6-0.1,1.1-0.1,1.6-0.2c0.5,0,1-0.1,1.5-0.1c0.6,0,1.1,0,1.6,0.1c0.5,0,1,0.1,1.6,0.2
		c0.1,1.3,0.2,2.8,0.3,4.5c0.1,1.7,0.1,3.3,0.1,4.7c1.4-2.6,3.4-4.8,5.9-6.6c2.5-1.8,5.9-2.7,10.1-2.7c0.4,0,0.7,0,1.1,0
		c0.4,0,0.8,0,1.3,0.1c0.2,1.2,0.3,2.3,0.3,3.4c0,1.1-0.1,2.2-0.3,3.3c-0.6-0.1-1-0.1-1.3-0.1c-0.3,0-0.7,0-1,0
		c-4.8,0-8.7,1.5-11.6,4.6c-2.9,3-4.4,8.1-4.4,15.2v27.8c-0.4,0.1-1,0.1-1.8,0.2c-0.7,0-1.3,0.1-1.8,0.1c-0.4,0-0.9,0-1.7-0.1
		c-0.8,0-1.4-0.1-1.8-0.2V91.3z"/>
	<path class="st6" d="M687.2,97.3h-6.8c-0.1-0.4-0.1-0.8-0.2-1.3c0-0.5-0.1-1-0.1-1.6c0-0.6,0-1.1,0.1-1.7c0-0.6,0.1-1,0.2-1.4h13.8
		v54.2c-0.4,0.1-1,0.1-1.8,0.2c-0.7,0-1.3,0.1-1.8,0.1c-0.4,0-0.9,0-1.7-0.1c-0.8,0-1.4-0.1-1.8-0.2V97.3z M683.7,78.1
		c-0.1-0.6-0.1-1.4-0.2-2.3c0-0.9-0.1-1.7-0.1-2.3c0-0.6,0-1.3,0.1-2.1c0-0.9,0.1-1.6,0.2-2.1c0.6-0.1,1.4-0.1,2.3-0.2
		c0.9,0,1.7-0.1,2.3-0.1c0.6,0,1.3,0,2.1,0.1c0.8,0,1.6,0.1,2.1,0.2c0.1,0.6,0.1,1.3,0.2,2.1c0,0.8,0.1,1.6,0.1,2.1
		c0,0.6,0,1.4-0.1,2.3c0,0.9-0.1,1.7-0.2,2.3c-0.6,0.1-1.3,0.1-2.1,0.2c-0.9,0-1.6,0.1-2.1,0.1c-0.6,0-1.4,0-2.3-0.1
		C685.1,78.2,684.3,78.1,683.7,78.1z"/>
	<path class="st6" d="M738.7,138.7c0.4,0.7,0.7,1.7,1,2.9c0.3,1.2,0.5,2.2,0.7,3c-1.8,0.6-3.8,1.2-6.1,1.6c-2.3,0.4-4.8,0.6-7.5,0.6
		c-8.9,0-15.6-2.4-20.2-7.3c-4.6-4.9-6.9-11.9-6.9-21.1c0-4,0.6-7.8,1.7-11.2c1.1-3.4,2.8-6.4,5-9c2.2-2.5,4.9-4.5,8.2-6
		c3.3-1.5,7.1-2.2,11.4-2.2c2.7,0,5.3,0.2,7.7,0.6c2.4,0.4,4.4,0.8,5.8,1.3c0,0.9-0.1,2-0.4,3.2c-0.2,1.2-0.5,2.2-0.8,2.9
		c-1.4-0.5-3.2-0.9-5.4-1.3c-2.2-0.4-4.5-0.5-7-0.5c-3.2,0-6,0.5-8.3,1.6c-2.4,1.1-4.4,2.6-5.9,4.6c-1.6,2-2.8,4.3-3.6,7
		c-0.8,2.7-1.2,5.7-1.2,8.9c0,7.6,1.8,13.3,5.5,16.8c3.6,3.6,8.6,5.4,14.8,5.4c2.1,0,4.2-0.2,6.1-0.5
		C735.4,139.7,737.2,139.3,738.7,138.7z"/>
	<g>
		<path class="st7" d="M182.4,59.7c-14-14-36.9-14-50.9,0L119.2,72l0,0L73,118.2c-4.7,4.4-8.8,0.6-9,0.4l11.8,11.8
			c5.6,5.6,10.2,1.1,10.2,1.1l47.3-47.3v0l11.3-11.3c6.8-6.8,17.9-6.8,24.7,0c6.8,6.8,6.8,17.9,0,24.7L158.8,108l13.1,13.1
			l10.5-10.5C196.5,96.5,196.5,73.7,182.4,59.7z"/>
		<path class="st7" d="M64,118.6L64,118.6C63.9,118.5,64,118.6,64,118.6z"/>
	</g>
	<g>
		<path class="st8" d="M64.4,118.9L64.4,118.9C64.3,118.9,64.3,118.9,64.4,118.9z"/>
	</g>
	<g>
		<path class="st9" d="M55.9,186.2c14,14,36.9,14,50.9,0l12.3-12.3l0,0l46.2-46.2c4.7-4.4,8.8-0.6,9-0.3l-11.8-11.8
			c-5.6-5.6-10.2-1.1-10.2-1.1l-47.3,47.3v0L93.7,173c-6.8,6.8-17.9,6.8-24.7,0c-6.8-6.8-6.8-17.9,0-24.7l10.5-10.5l-13.1-13.1
			l-10.5,10.5C41.9,149.3,41.9,172.1,55.9,186.2z"/>
		<path class="st9" d="M174.4,127.3L174.4,127.3C174.4,127.3,174.4,127.3,174.4,127.3z"/>
	</g>
</g>
<g id="Layer_2" class="st10">
	<g class="st11">
		<path class="st8" d="M545.8,22.6c-0.1,11.9-4.7,23.7-13.7,32.7l-29.3,27.3l1.5,1.5l27.8-27.8C541.3,47,545.9,34.8,545.8,22.6z"/>
		<path class="st8" d="M272.6,112.2L397-12.2l0,0l33.2-33.2c37.8-37.8,99.4-37.8,137.2,0c18.8,18.8,28.2,43.4,28.4,68.1
			c0.1-25-9.3-50.1-28.4-69.1c-37.8-37.8-99.4-37.8-137.2,0L397-13.3l0,0L272.6,111.2c-12.2,10.7-23.6,1.6-24.3,0.9l2.7,2.1
			C255.3,116.7,264,120.3,272.6,112.2z"/>
	</g>
</g>
</svg>
